# Blender 3.4.1
# www.blender.org
o Cube
v 0.500000 0.000000 -0.500000
v 0.500000 0.000000 0.500000
v -0.500000 0.000000 -0.500000
v -0.500000 0.000000 0.500000
v 0.500000 0.979575 -0.064502
v 0.500000 1.000000 -0.024951
v 0.500000 1.000000 0.024951
v 0.500000 0.979575 0.064502
v -0.500000 1.000000 -0.024951
v -0.500000 0.979575 -0.064502
v -0.500000 0.979575 0.064502
v -0.500000 1.000000 0.024951
v 0.500000 0.225193 -0.468473
v 0.500000 0.273193 -0.455537
v 0.500000 0.250000 -0.439951
v 0.500000 0.476807 -0.372463
v 0.500000 0.522022 -0.351064
v 0.500000 0.500000 -0.337951
v 0.500000 0.727978 -0.239436
v 0.500000 0.770425 -0.212998
v 0.500000 0.750000 -0.202451
v 0.500000 0.770425 0.212998
v 0.500000 0.727978 0.239436
v 0.500000 0.750000 0.202451
v 0.500000 0.522022 0.351064
v 0.500000 0.476807 0.372463
v 0.500000 0.500000 0.337951
v 0.500000 0.273193 0.455537
v 0.500000 0.225193 0.468473
v 0.500000 0.250000 0.439951
v -0.500000 0.727978 0.239436
v -0.500000 0.770425 0.212998
v -0.500000 0.750000 0.202451
v -0.500000 0.476807 0.372463
v -0.500000 0.522022 0.351064
v -0.500000 0.500000 0.337951
v -0.500000 0.225193 0.468473
v -0.500000 0.273193 0.455537
v -0.500000 0.250000 0.439951
v -0.500000 0.770425 -0.212998
v -0.500000 0.727978 -0.239436
v -0.500000 0.750000 -0.202451
v -0.500000 0.522022 -0.351064
v -0.500000 0.476807 -0.372463
v -0.500000 0.500000 -0.337951
v -0.500000 0.273193 -0.455537
v -0.500000 0.225193 -0.468473
v -0.500000 0.250000 -0.439951
vn -0.0000 1.0000 -0.0000
vn -1.0000 -0.0000 -0.0000
vn 1.0000 -0.0000 -0.0000
vn -0.0000 -1.0000 -0.0000
vn -0.0000 0.5789 0.8154
vn -0.0000 0.4765 0.8792
vn -0.0000 0.1386 0.9903
vn -0.0000 0.3778 0.9259
vn -0.0000 0.1386 -0.9903
vn -0.0000 0.3778 -0.9259
vn -0.0000 0.4765 -0.8792
vn -0.0000 0.8885 0.4588
vn -0.0000 0.8885 -0.4588
vn -0.0000 0.2602 -0.9656
vn -0.0000 0.4278 -0.9039
vn -0.0000 0.5287 -0.8488
vn -0.0000 0.2602 0.9656
vn -0.0000 0.4278 0.9039
vn -0.0000 0.5287 0.8488
vn -0.0000 0.5789 -0.8154
vt 0.375000 0.000000
vt 0.125000 0.750000
vt 0.375000 1.000000
vt 0.125000 0.500000
vt 0.375000 0.250000
vt 0.375000 0.750000
vt 0.375000 0.500000
vt 0.619894 0.000000
vt 0.619894 1.000000
vt 0.875000 0.687377
vt 0.625000 0.062623
vt 0.625000 1.000000
vt 0.875000 0.562623
vt 0.625000 0.187377
vt 0.625000 0.250000
vt 0.619894 0.250000
vt 0.625000 0.687377
vt 0.625000 0.750000
vt 0.619894 0.750000
vt 0.619894 0.500000
vt 0.625000 0.562623
vt 0.625000 0.500000
vt 0.431298 0.000000
vt 0.431298 1.000000
vt 0.443298 0.000000
vt 0.437500 0.002544
vt 0.443298 1.000000
vt 0.437500 0.006734
vt 0.494202 0.000000
vt 0.494202 1.000000
vt 0.505506 0.000000
vt 0.500000 0.004110
vt 0.505506 1.000000
vt 0.500000 0.008626
vt 0.556994 0.000000
vt 0.556994 1.000000
vt 0.567606 0.000000
vt 0.562500 0.007968
vt 0.567606 1.000000
vt 0.562500 0.013763
vt 0.567606 0.250000
vt 0.557431 0.250000
vt 0.556994 0.250000
vt 0.562500 0.236237
vt 0.505506 0.250000
vt 0.494527 0.250000
vt 0.494202 0.250000
vt 0.500000 0.241374
vt 0.443298 0.250000
vt 0.431880 0.250000
vt 0.431298 0.250000
vt 0.437500 0.243266
vt 0.556994 0.500000
vt 0.567966 0.500000
vt 0.567606 0.500000
vt 0.562500 0.513763
vt 0.494202 0.500000
vt 0.505764 0.500000
vt 0.505506 0.500000
vt 0.500000 0.508626
vt 0.431298 0.500000
vt 0.443512 0.500000
vt 0.443298 0.500000
vt 0.437500 0.506734
vt 0.567606 0.750000
vt 0.557431 0.750000
vt 0.556994 0.750000
vt 0.562500 0.736237
vt 0.505506 0.750000
vt 0.494527 0.750000
vt 0.494202 0.750000
vt 0.500000 0.741374
vt 0.443298 0.750000
vt 0.431880 0.750000
vt 0.431298 0.750000
vt 0.437500 0.743266
s 0
f 12/21/1 7/13/1 6/10/1 9/17/1
f 33/56/2 32/55/2 11/20/2 12/21/2 9/17/2 10/19/2 40/65/2 42/68/2
f 1/1/3 13/23/3 15/28/3 30/52/3 29/51/3 2/5/3
f 21/40/3 20/37/3 5/8/3 6/11/3 7/14/3 8/16/3 22/41/3 24/44/3
f 2/4/4 4/7/4 3/6/4 1/2/4
f 22/41/5 8/16/5 11/20/5 32/55/5
f 15/28/3 14/25/3 16/29/3 18/34/3 27/48/3 26/47/3 28/49/3 30/52/3
f 18/34/3 17/31/3 19/35/3 21/40/3 24/44/3 23/43/3 25/45/3 27/48/3
f 25/45/6 23/43/6 31/53/6 35/59/6
f 4/7/2 37/61/2 39/64/2 48/76/2 47/75/2 3/6/2
f 39/64/2 38/63/2 34/57/2 36/60/2 45/72/2 44/71/2 46/73/2 48/76/2
f 36/60/2 35/59/2 31/53/2 33/56/2 42/68/2 41/67/2 43/69/2 45/72/2
f 2/5/7 29/51/7 37/61/7 4/7/7
f 28/49/8 26/47/8 34/57/8 38/63/8
f 3/6/9 47/75/9 13/24/9 1/3/9
f 46/73/10 44/71/10 16/30/10 14/27/10
f 43/69/11 41/67/11 19/36/11 17/33/11
f 13/23/3 14/26/3 15/28/3
f 16/29/3 17/32/3 18/34/3
f 19/35/3 20/38/3 21/40/3
f 22/41/3 23/42/3 24/44/3
f 25/45/3 26/46/3 27/48/3
f 28/49/3 29/50/3 30/52/3
f 31/53/2 32/54/2 33/56/2
f 34/57/2 35/58/2 36/60/2
f 37/61/2 38/62/2 39/64/2
f 40/65/2 41/66/2 42/68/2
f 43/69/2 44/70/2 45/72/2
f 46/73/2 47/74/2 48/76/2
f 7/15/12 12/22/12 11/20/12 8/16/12
f 9/18/13 6/12/13 5/9/13 10/19/13
f 46/73/14 14/27/14 13/24/14 47/75/14
f 43/69/15 17/33/15 16/30/15 44/71/15
f 40/65/16 20/39/16 19/36/16 41/67/16
f 28/49/17 38/63/17 37/61/17 29/51/17
f 25/45/18 35/59/18 34/57/18 26/47/18
f 22/41/19 32/55/19 31/53/19 23/43/19
f 40/65/20 10/19/20 5/9/20 20/39/20
